HIERARCHY
ROOT Hips
{
  OFFSET 5.84602e-005 68.8428 3.50346
  CHANNELS 6 Xposition Yposition Zposition Zrotation Xrotation Yrotation
  JOINT Spine
  {
    OFFSET 0 8.597 -4.6522
    CHANNELS 3 Zrotation Xrotation Yrotation
    JOINT Spine1
    {
      OFFSET 0 7.8454 0.4098
      CHANNELS 3 Zrotation Xrotation Yrotation
      JOINT Spine2
      {
        OFFSET 0 9.7078 -2.1609
        CHANNELS 3 Zrotation Xrotation Yrotation
        JOINT Neck
        {
          OFFSET 0 21.8761 -0.4549
          CHANNELS 3 Zrotation Xrotation Yrotation
          JOINT Head
          {
            OFFSET 0 12.3537 3.3602
            CHANNELS 3 Zrotation Xrotation Yrotation
            End Site
            {
              OFFSET 0.0001 18.9506 0.5657
            }
          }
        }
        JOINT LeftShoulder
        {
          OFFSET 2.2086 21.1115 7.2329
          CHANNELS 3 Zrotation Xrotation Yrotation
          JOINT LeftArm
          {
            OFFSET 13.1193 3.0282 -4.8998
            CHANNELS 3 Zrotation Xrotation Yrotation
            JOINT LeftForeArm
            {
              OFFSET 27.4081 -0.0973053 -0.2375
              CHANNELS 3 Zrotation Xrotation Yrotation
              JOINT LeftHand
              {
                OFFSET 22.8641 0.0662994 -0.1369
                CHANNELS 3 Zrotation Xrotation Yrotation
                JOINT LeftHandIndex1
                {
                  OFFSET 8.8614 0.775009 2.4612
                  CHANNELS 3 Zrotation Xrotation Yrotation
                  JOINT LeftHandIndex2
                  {
                    OFFSET 3.3146 -0.808304 0.5841
                    CHANNELS 3 Zrotation Xrotation Yrotation
                    JOINT LeftHandIndex3
                    {
                      OFFSET 2.2628 -0.552002 0.3989
                      CHANNELS 3 Zrotation Xrotation Yrotation
                      End Site
                      {
                        OFFSET 1.6102 -0.4807 0.2612
                      }
                    }
                  }
                }
                JOINT LeftHandMiddle1
                {
                  OFFSET 8.9937 0.895004 0.2143
                  CHANNELS 3 Zrotation Xrotation Yrotation
                  JOINT LeftHandMiddle2
                  {
                    OFFSET 4.0984 0.0113983 -0.0242
                    CHANNELS 3 Zrotation Xrotation Yrotation
                    JOINT LeftHandMiddle3
                    {
                      OFFSET 2.2716 0.00689697 -0.0138001
                      CHANNELS 3 Zrotation Xrotation Yrotation
                      End Site
                      {
                        OFFSET 2.0404 -0.1441 0.0027
                      }
                    }
                  }
                }
                JOINT LeftHandRing1
                {
                  OFFSET 8.5234 0.597198 -2.0164
                  CHANNELS 3 Zrotation Xrotation Yrotation
                  JOINT LeftHandRing2
                  {
                    OFFSET 3.7188 -0.188293 -0.2328
                    CHANNELS 3 Zrotation Xrotation Yrotation
                    JOINT LeftHandRing3
                    {
                      OFFSET 2.1191 -0.106598 -0.1332
                      CHANNELS 3 Zrotation Xrotation Yrotation
                      End Site
                      {
                        OFFSET 1.8737 -0.2304 -0.0886
                      }
                    }
                  }
                }
                JOINT LeftHandPinky1
                {
                  OFFSET 7.9094 -0.601089 -3.4825
                  CHANNELS 3 Zrotation Xrotation Yrotation
                  JOINT LeftHandPinky2
                  {
                    OFFSET 2.2874 -0.477005 -0.6314
                    CHANNELS 3 Zrotation Xrotation Yrotation
                    JOINT LeftHandPinky3
                    {
                      OFFSET 1.6774 -0.349396 -0.4633
                      CHANNELS 3 Zrotation Xrotation Yrotation
                      End Site
                      {
                        OFFSET 1.4888 -0.4091 -0.3416
                      }
                    }
                  }
                }
                JOINT LeftHandThumb1
                {
                  OFFSET 1.833 -1.3875 1.3896
                  CHANNELS 3 Zrotation Xrotation Yrotation
                  JOINT LeftHandThumb2
                  {
                    OFFSET 3.4129 -1.121 2.5732
                    CHANNELS 3 Zrotation Xrotation Yrotation
                    JOINT LeftHandThumb3
                    {
                      OFFSET 2.2474 -0.804199 1.6192
                      CHANNELS 3 Zrotation Xrotation Yrotation
                      End Site
                      {
                        OFFSET 1.6527 -0.5689 1.1317
                      }
                    }
                  }
                }
              }
            }
          }
        }
        JOINT RightShoulder
        {
          OFFSET -2.2086 21.1115 7.2329
          CHANNELS 3 Zrotation Xrotation Yrotation
          JOINT RightArm
          {
            OFFSET -13.1216 3.0287 -4.9007
            CHANNELS 3 Zrotation Xrotation Yrotation
            JOINT RightForeArm
            {
              OFFSET -27.4081 -0.0973053 -0.2375
              CHANNELS 3 Zrotation Xrotation Yrotation
              JOINT RightHand
              {
                OFFSET -22.8641 0.0664063 -0.1369
                CHANNELS 3 Zrotation Xrotation Yrotation
                JOINT RightHandIndex1
                {
                  OFFSET -8.8614 0.774994 2.4612
                  CHANNELS 3 Zrotation Xrotation Yrotation
                  JOINT RightHandIndex2
                  {
                    OFFSET -3.3146 -0.808304 0.5841
                    CHANNELS 3 Zrotation Xrotation Yrotation
                    JOINT RightHandIndex3
                    {
                      OFFSET -2.2628 -0.552002 0.3989
                      CHANNELS 3 Zrotation Xrotation Yrotation
                      End Site
                      {
                        OFFSET -1.6102 -0.4807 0.2612
                      }
                    }
                  }
                }
                JOINT RightHandMiddle1
                {
                  OFFSET -8.9937 0.894989 0.2143
                  CHANNELS 3 Zrotation Xrotation Yrotation
                  JOINT RightHandMiddle2
                  {
                    OFFSET -4.0984 0.0113983 -0.0242
                    CHANNELS 3 Zrotation Xrotation Yrotation
                    JOINT RightHandMiddle3
                    {
                      OFFSET -2.2716 0.00691223 -0.0138001
                      CHANNELS 3 Zrotation Xrotation Yrotation
                      End Site
                      {
                        OFFSET -2.0404 -0.1441 0.0027
                      }
                    }
                  }
                }
                JOINT RightHandRing1
                {
                  OFFSET -8.5234 0.597198 -2.0164
                  CHANNELS 3 Zrotation Xrotation Yrotation
                  JOINT RightHandRing2
                  {
                    OFFSET -3.7188 -0.188309 -0.2328
                    CHANNELS 3 Zrotation Xrotation Yrotation
                    JOINT RightHandRing3
                    {
                      OFFSET -2.1191 -0.106598 -0.1332
                      CHANNELS 3 Zrotation Xrotation Yrotation
                      End Site
                      {
                        OFFSET -1.8737 -0.2304 -0.0886
                      }
                    }
                  }
                }
                JOINT RightHandPinky1
                {
                  OFFSET -7.9094 -0.601105 -3.4825
                  CHANNELS 3 Zrotation Xrotation Yrotation
                  JOINT RightHandPinky2
                  {
                    OFFSET -2.2874 -0.477005 -0.6314
                    CHANNELS 3 Zrotation Xrotation Yrotation
                    JOINT RightHandPinky3
                    {
                      OFFSET -1.6774 -0.349396 -0.4633
                      CHANNELS 3 Zrotation Xrotation Yrotation
                      End Site
                      {
                        OFFSET -1.4888 -0.4091 -0.3416
                      }
                    }
                  }
                }
                JOINT RightHandThumb1
                {
                  OFFSET -1.833 -1.38751 1.3896
                  CHANNELS 3 Zrotation Xrotation Yrotation
                  JOINT RightHandThumb2
                  {
                    OFFSET -3.41299 -1.12099 2.5732
                    CHANNELS 3 Zrotation Xrotation Yrotation
                    JOINT RightHandThumb3
                    {
                      OFFSET -2.24741 -0.804108 1.6192
                      CHANNELS 3 Zrotation Xrotation Yrotation
                      End Site
                      {
                        OFFSET -1.6527 -0.5689 1.1317
                      }
                    }
                  }
                }
              }
            }
          }
        }
      }
    }
  }
  JOINT RightUpLeg
  {
    OFFSET -9.1966 3.8861 -0.7581
    CHANNELS 3 Zrotation Xrotation Yrotation
    JOINT RightLeg
    {
      OFFSET -0.7359 -41.0265 0
      CHANNELS 3 Zrotation Xrotation Yrotation
      JOINT RightFoot
      {
        OFFSET 0 -40.2855 0
        CHANNELS 3 Zrotation Xrotation Yrotation
        JOINT RightToeBase
        {
          OFFSET 0 -5.6122 11.7359
          CHANNELS 3 Zrotation Xrotation Yrotation
          End Site
          {
            OFFSET 0 0 7.8731
          }
        }
      }
    }
  }
  JOINT LeftUpLeg
  {
    OFFSET 9.1965 3.8864 -0.7581
    CHANNELS 3 Zrotation Xrotation Yrotation
    JOINT LeftLeg
    {
      OFFSET 0.7359 -41.0268 0
      CHANNELS 3 Zrotation Xrotation Yrotation
      JOINT LeftFoot
      {
        OFFSET 0 -40.2855 0
        CHANNELS 3 Zrotation Xrotation Yrotation
        JOINT LeftToeBase
        {
          OFFSET 0 -5.6122 11.7359
          CHANNELS 3 Zrotation Xrotation Yrotation
          End Site
          {
            OFFSET 0 0 7.8731
          }
        }
      }
    }
  }
}
MOTION
Frames:	4
Frame Time:	0.0333333
5.84602e-005 68.8428 3.50346 0 0 -0 0 0 -0 0 0 -0 0 0 -0 0 0 -0 0 0 -0 0 0 -0 0 0 -0 0 0 -0 0 0 -0 0 0 -0 0 0 -0 0 0 -0 0 0 -0 -0.0146107 -8.87603e-005 -2.63497e-007 2.99804e-018 -2.42657e-020 -1.42182e-022 0 0 -0 -0.0187562 -0.001176 5.858e-005 5.06224e-018 3.88251e-019 1.21329e-020 0 0 -0 -0.012269 -0.00324817 0.000675346 -1.74678e-018 3.88251e-019 -0 0 0 -0 0 0 -0 0 0 -0 0 0 -0 0 0 -0 0 0 -0 0 0 -0 0 0 -0 0 0 -0 0 0 -0 0 0 -0 0.0149955 -9.10982e-005 2.64101e-007 -9.69331e-018 1.21329e-020 -4.7394e-023 0 0 -0 0.0189956 -0.00119102 -5.96516e-005 -5.41541e-019 0 2.42657e-020 0 0 -0 0.0122698 -0.00324857 -0.000673756 -2.00796e-019 0 -1.94126e-019 0 0 -0 0 0 -0 0 0 -0 3.39842 1.33031 -0.0637918 -5.65207e-008 0.834868 -0.000436188 -3.39935 -2.16518 -0.0642563 -8.89002e-024 -1.18485e-023 -1.48106e-024 -3.39844 1.35642 0.0640283 -3.18788e-007 0.782166 -0.000588827 3.39931 -2.13858 0.0634662 1.1399e-023 0 -0 
-0.924549 1.78611 8.45262 -0 -85.0005 -0 0.575646 -3.04737 -0.371332 1.13388 -6.09827 -0.713454 1.13388 -6.09825 -0.713455 21.0005 -0.935116 0.356493 11.0405 -4.9108 0.954929 -26.3193 4.01308 -16.2615 -54.5902 -6.88789 -16.1867 5.94526 4.17759 -22.3731 -50.5222 9.428 0.305264 1.98785e-015 3.97569e-015 3.18055e-015 -1.84265e-006 9.83228e-007 -2.09691e-006 2.38542e-015 5.56597e-015 1.27222e-014 1.98785e-015 3.97569e-015 3.18055e-015 -0.0146382 -8.92351e-005 -2.61371e-007 -6.36111e-015 -4.77083e-015 -0 1.98785e-015 3.97569e-015 3.18055e-015 -0.0187543 -0.00117632 5.7935e-005 1.07344e-014 7.95139e-016 -0 1.98785e-015 3.97569e-015 3.18055e-015 -0.0123165 -0.0032583 0.00067595 6.3855e-007 -3.00948e-007 1.14697e-006 1.98785e-015 3.97569e-015 3.18055e-015 -1.84265e-006 9.83228e-007 -2.09691e-006 2.38542e-015 5.56597e-015 1.27222e-014 19.0741 -14.3836 -7.50154 59.425 -4.35916 11.9116 17.5453 29.309 74.974 27.6585 0.35272 -0.783728 1.19271e-015 -3.18055e-015 1.59028e-015 -1.59028e-015 -1.59028e-015 -0 5.96354e-015 1.59028e-015 -0 1.19271e-015 -3.18055e-015 1.59028e-015 0.0149746 -9.08616e-005 -3.29535e-007 1.98785e-015 3.18055e-015 -4.77083e-015 1.19271e-015 -3.18055e-015 1.59028e-015 0.0189637 -0.00118911 -5.96198e-005 2.78299e-015 1.59028e-015 1.59028e-015 1.19271e-015 -3.18055e-015 1.59028e-015 0.012238 -0.00323922 -0.000675382 1.35174e-014 1.59028e-015 -3.18055e-015 1.19271e-015 -3.18055e-015 1.59028e-015 -1.59028e-015 -1.59028e-015 -0 5.96354e-015 1.59028e-015 -0 -5.00055 -11.7082 -2.53287 12.7763 30.9765 -25.58 -4.61653 20.4572 8.42664 -2.70673e-007 -3.29976e-006 -7.47081e-007 6.58286 -13.5484 5.93605 -14.3633 36.2417 27.0881 13.7959 19.3716 -13.7131 5.56597e-015 0 -3.97569e-015 
-0.924632 1.96764 8.43634 -0 -85.3345 -0 0.574672 -2.84995 -0.38275 1.13235 -5.70354 -0.738193 1.13235 -5.70355 -0.738193 20.8204 -0.617548 0.354286 10.8447 -4.68618 0.939457 -26.1818 3.58795 -16.4929 -54.5902 -6.88789 -16.1867 5.94527 4.17758 -22.3731 -50.5222 9.428 0.30526 1.19271e-015 6.36111e-015 -0 -7.95139e-016 4.77083e-015 -6.36111e-015 5.56597e-015 4.77083e-015 -0 1.19271e-015 6.36111e-015 -0 -0.014638 -8.93324e-005 -7.6021e-007 9.14409e-015 -4.77083e-015 6.36111e-015 1.19271e-015 6.36111e-015 -0 -0.0186956 -0.00117405 6.19072e-005 -7.95139e-016 2.38542e-015 3.18055e-015 1.19271e-015 6.36111e-015 -0 -0.0123248 -0.00326301 0.000680519 7.95139e-016 8.74653e-015 -6.36111e-015 1.19271e-015 6.36111e-015 -0 -7.95139e-016 4.77083e-015 -6.36111e-015 5.56597e-015 4.77083e-015 -0 18.9867 -14.8847 -7.29913 59.425 -4.35916 11.9116 17.5453 29.3089 74.974 27.6585 0.35272 -0.78373 2.38542e-015 0 3.18055e-015 -1.59028e-015 4.77083e-015 3.18055e-015 4.37326e-015 -1.59028e-015 -3.18055e-015 2.38542e-015 0 3.18055e-015 0.0149654 -8.90783e-005 3.53287e-006 -4.37326e-015 -3.18055e-015 1.59028e-015 2.38542e-015 0 3.18055e-015 0.0189895 -0.00118904 -5.92674e-005 1.11319e-014 -3.18055e-015 1.59028e-015 2.38542e-015 0 3.18055e-015 0.0122982 -0.00325608 -0.000676952 5.1684e-015 1.59028e-015 -1.59028e-015 2.38542e-015 0 3.18055e-015 -1.59028e-015 4.77083e-015 3.18055e-015 4.37326e-015 -1.59028e-015 -3.18055e-015 -4.452 -11.3238 -0.883121 12.7764 30.9767 -25.549 -3.54484 20.5585 6.67768 4.7014e-007 1.62304e-007 1.17771e-006 6.0794 -13.1813 4.60835 -14.3643 36.2435 27.0692 12.9119 19.6529 -12.3906 7.99984e-007 -6.90449e-008 -2.82851e-007 
-0.924688 2.14913 8.41982 -0 -85.6686 -0 0.573766 -2.65166 -0.394159 1.13106 -5.30707 -0.762912 1.13106 -5.30708 -0.762911 20.6402 -0.300133 0.355146 10.649 -4.4615 0.924763 -26.0461 3.16209 -16.7233 -54.5902 -6.88789 -16.1867 5.94525 4.17759 -22.3731 -50.5222 9.428 0.305275 8.74653e-015 6.36111e-015 -0 -1.07344e-014 5.56597e-015 3.18055e-015 -7.95139e-015 -4.77083e-015 6.36111e-015 8.74653e-015 6.36111e-015 -0 -0.0145719 -8.55093e-005 -1.48514e-006 1.59028e-015 -3.97569e-015 -3.18055e-015 8.74653e-015 6.36111e-015 -0 -0.0187755 -0.00117892 6.1733e-005 -6.19968e-007 3.12692e-007 -1.19695e-006 8.74653e-015 6.36111e-015 -0 -0.0122898 -0.00325451 0.000680237 -6.2081e-007 3.1289e-007 -1.19703e-006 8.74653e-015 6.36111e-015 -0 -1.07344e-014 5.56597e-015 3.18055e-015 -7.95139e-015 -4.77083e-015 6.36111e-015 18.9008 -15.3863 -7.09697 59.425 -4.35916 11.9116 17.5453 29.309 74.974 27.6585 0.352718 -0.78373 -1.19271e-015 -3.18055e-015 -3.18055e-015 -7.95139e-015 -6.36111e-015 -9.54166e-015 -5.56597e-015 -4.77083e-015 -7.95139e-015 -1.19271e-015 -3.18055e-015 -3.18055e-015 0.0150036 -8.8545e-005 -1.57325e-006 -2.78299e-015 1.59028e-015 1.59028e-015 -1.19271e-015 -3.18055e-015 -3.18055e-015 0.0190093 -0.00119119 -5.97625e-005 -2.78299e-015 0 -4.77083e-015 -1.19271e-015 -3.18055e-015 -3.18055e-015 0.0122774 -0.00325066 -0.0006768 1.15295e-014 1.59028e-015 -3.18055e-015 -1.19271e-015 -3.18055e-015 -3.18055e-015 -7.95139e-015 -6.36111e-015 -9.54166e-015 -5.56597e-015 -4.77083e-015 -7.95139e-015 -3.91339 -10.9216 0.766153 12.7755 30.9749 -25.5166 -2.46583 20.6301 4.91904 3.11913e-007 1.08877e-007 7.85641e-007 5.58408 -12.8016 3.28314 -14.3647 36.2441 27.0492 12.0177 19.9159 -11.0579 2.75755e-007 3.20157e-006 2.61412e-007 
